<?xml version="1.0" encoding="UTF-8"?>
<svg id="Layer_1" data-name="Layer 1" xmlns="http://www.w3.org/2000/svg" viewBox="0 0 540 540">
  <defs>
    <style>
      .cls-1 {
        fill: #8c8c8c;
      }

      .cls-1, .cls-2, .cls-3, .cls-4 {
        stroke-width: 0px;
      }

      .cls-2 {
        fill: #a5a5a5;
      }

      .cls-3 {
        fill: #6d6d6d;
      }

      .cls-4 {
        fill: #c9c9c9;
      }
    </style>
  </defs>
  <g>
    <path class="cls-1" d="M416.24,278.61l-4.54-2.68-121.93,76.83c-4.27,2.69-9.67,2.84-14.09.39l-121.7-67.6-5.15,3.42c-8.63,5.73-8.13,18.57.93,23.61l125.91,69.94c4.41,2.45,9.81,2.3,14.09-.39l126.82-79.92c8.76-5.52,8.57-18.35-.35-23.61Z"/>
    <path class="cls-2" d="M275.68,314.13l-125.91-69.94c-9.06-5.03-9.57-17.87-.93-23.61l126.8-84.2c4.41-2.93,10.11-3.08,14.67-.39l125.94,74.23c8.92,5.26,9.11,18.09.35,23.61l-126.82,79.92c-4.27,2.69-9.67,2.84-14.09.39Z"/>
  </g>
  <path class="cls-4" d="M277.03,276.49l-83.77-46.04c-6.03-3.31-6.29-11.89-.49-15.78l85.24-57.01c2.97-1.98,6.77-2.12,9.81-.35l83.76,48.9c5.93,3.46,5.99,12.04.1,15.78l-85.23,54.14c-2.87,1.82-6.48,1.95-9.42.34Z"/>
  <rect class="cls-3" x="268.02" y="418.55" width="30.71" height="30.71" rx="6.63" ry="6.63"/>
</svg>