<?xml version="1.0" encoding="UTF-8"?>
<svg id="Layer_1" data-name="Layer 1" xmlns="http://www.w3.org/2000/svg" viewBox="0 0 540 540">
  <defs>
    <style>
      .cls-1 {
        fill: #8c8c8c;
      }

      .cls-1, .cls-2, .cls-3 {
        stroke-width: 0px;
      }

      .cls-2 {
        fill: #333;
      }

      .cls-3 {
        fill: #6d6d6d;
      }
    </style>
  </defs>
  <path class="cls-1" d="M413.32,281.13l-4.54-2.68-121.93,76.83c-4.27,2.69-9.67,2.84-14.09.39l-121.7-67.6-5.15,3.42c-8.63,5.73-8.13,18.57.93,23.61l125.91,69.94c4.41,2.45,9.81,2.3,14.09-.39l126.82-79.92c8.76-5.52,8.57-18.35-.35-23.61Z"/>
  <path class="cls-2" d="M228.34,230.22c25.79-17.1,68.16-16.81,95.09.5,27.06,17.39,28.87,45.73,3.59,63.46-25.66,18-69.21,18.11-96.78.08-27.44-17.94-28.07-46.68-1.89-64.04Z"/>
  <polygon class="cls-2" points="344.9 161.53 344.85 262.65 209.63 256.2 209.63 156.99 344.9 161.53"/>
  <path class="cls-1" d="M228.34,132.95c25.79-17.1,68.16-16.81,95.09.5,27.06,17.39,28.87,45.73,3.59,63.46-25.66,18-69.21,18.11-96.78.08-27.44-17.94-28.07-46.68-1.89-64.04Z"/>
  <rect class="cls-3" x="264.57" y="421.07" width="30.71" height="30.71" rx="6.63" ry="6.63"/>
</svg>