<?xml version="1.0" encoding="UTF-8"?>
<svg id="Layer_1" data-name="Layer 1" xmlns="http://www.w3.org/2000/svg" viewBox="0 0 540 540">
  <defs>
    <style>
      .cls-1 {
        fill: #8c8c8c;
      }

      .cls-1, .cls-2, .cls-3, .cls-4 {
        stroke-width: 0px;
      }

      .cls-2 {
        fill: #0f0f0f;
      }

      .cls-3 {
        fill: #595959;
      }

      .cls-4 {
        fill: #6d6d6d;
      }
    </style>
  </defs>
  <g>
    <path class="cls-1" d="M434.86,283.54l-4.91-2.89-131.77,83.04c-4.62,2.91-10.45,3.07-15.22.42l-131.52-73.06-5.57,3.7c-9.33,6.2-8.78,20.08,1.01,25.51l136.08,75.59c4.77,2.65,10.61,2.49,15.22-.42l137.06-86.37c9.47-5.97,9.26-19.84-.38-25.52Z"/>
    <path class="cls-3" d="M282.95,321.92l-136.08-75.59c-9.79-5.44-10.34-19.32-1.01-25.51l137.04-91c4.77-3.17,10.93-3.33,15.86-.43l136.11,80.22c9.64,5.68,9.85,19.55.38,25.52l-137.06,86.37c-4.62,2.91-10.45,3.07-15.22.42Z"/>
  </g>
  <path class="cls-2" d="M284.41,281.24l-90.54-49.76c-6.51-3.58-6.8-12.85-.53-17.05l92.12-61.61c3.21-2.14,7.32-2.29,10.6-.37l90.53,52.85c6.41,3.74,6.47,13.01.11,17.06l-92.11,58.52c-3.1,1.97-7.01,2.11-10.18.37Z"/>
  <rect class="cls-4" x="274.1" y="434.78" width="33.19" height="33.19" rx="5.22" ry="5.22"/>
</svg>