<?xml version="1.0" encoding="UTF-8"?>
<svg id="Layer_1" data-name="Layer 1" xmlns="http://www.w3.org/2000/svg" viewBox="0 0 540 540">
  <defs>
    <style>
      .cls-1 {
        fill: #8c8c8c;
      }

      .cls-1, .cls-2, .cls-3 {
        stroke-width: 0px;
      }

      .cls-2 {
        fill: #333;
      }

      .cls-3 {
        fill: #6d6d6d;
      }
    </style>
  </defs>
  <path class="cls-1" d="M506.46,240.34l-4.54-2.68-228.58,108.86c-4.27,2.69-9.67,2.84-14.09.39L44.69,240.37l-5.15,3.42c-8.63,5.73-8.13,18.57.93,23.61l218.77,108.89c4.41,2.45,9.81,2.3,14.09-.39l233.48-111.94c8.76-5.52,8.57-18.35-.35-23.61Z"/>
  <ellipse class="cls-2" cx="277.64" cy="213.6" rx="136.11" ry="72.74"/>
  <rect class="cls-3" x="233.2" y="396.67" width="30.71" height="30.71" rx="6.63" ry="6.63"/>
  <rect class="cls-3" x="268.48" y="396.67" width="30.71" height="30.71" rx="6.63" ry="6.63"/>
  <rect class="cls-3" x="233.2" y="430.97" width="30.71" height="30.71" rx="6.63" ry="6.63"/>
  <rect class="cls-3" x="268.48" y="430.97" width="30.71" height="30.71" rx="6.63" ry="6.63"/>
</svg>