<?xml version="1.0" encoding="UTF-8"?>
<svg id="Layer_1" data-name="Layer 1" xmlns="http://www.w3.org/2000/svg" viewBox="0 0 540 540">
  <defs>
    <style>
      .cls-1 {
        fill: #8c8c8c;
      }

      .cls-1, .cls-2, .cls-3 {
        stroke-width: 0px;
      }

      .cls-2 {
        fill: #2b2b2b;
      }

      .cls-3 {
        fill: #6d6d6d;
      }
    </style>
  </defs>
  <path class="cls-1" d="M498.53,196.93l-4.54-2.68-301.74,171.75c-4.27,2.69-9.67,2.84-14.09.39l-121.7-67.6-5.15,3.42c-8.63,5.73-8.13,18.57.93,23.61l125.91,69.94c4.41,2.45,9.81,2.3,14.09-.39l306.63-174.84c8.76-5.52,8.57-18.35-.35-23.61Z"/>
  <path class="cls-2" d="M175.9,332.93l-65.52-36.4c-4.71-2.62-4.98-9.3-.49-12.28L388.28,123.06c2.3-1.52,5.26-1.6,7.63-.2l65.53,38.63c4.64,2.74,4.74,9.41.18,12.29l-278.4,158.96c-2.22,1.4-5.03,1.48-7.33.2Z"/>
  <rect class="cls-3" x="206.18" y="432.18" width="30.71" height="30.71" rx="6.63" ry="6.63"/>
  <rect class="cls-3" x="241.46" y="432.18" width="30.71" height="30.71" rx="6.63" ry="6.63"/>
  <rect class="cls-3" x="276.74" y="432.18" width="30.71" height="30.71" rx="6.63" ry="6.63"/>
</svg>