<?xml version="1.0" encoding="UTF-8"?>
<svg id="Layer_1" data-name="Layer 1" xmlns="http://www.w3.org/2000/svg" viewBox="0 0 540 540">
  <defs>
    <style>
      .cls-1 {
        fill: #8c8c8c;
      }

      .cls-1, .cls-2, .cls-3 {
        stroke-width: 0px;
      }

      .cls-2 {
        fill: #333;
      }

      .cls-3 {
        fill: #6d6d6d;
      }
    </style>
  </defs>
  <path class="cls-2" d="M273.89,164.96c0,25.73-19.67,54.96-44.04,65.67-24.48,10.76-44.96-1.01-45.63-26.67-.68-26.06,19.25-56.29,44.41-67.11,25.04-10.77,45.25,2,45.25,28.12Z"/>
  <polygon class="cls-2" points="367.28 194.67 260.38 136.92 198.43 231.13 298.95 284.18 367.28 194.67"/>
  <path class="cls-1" d="M376.36,219.28c0,25.73-19.67,54.96-44.04,65.67-24.48,10.76-44.96-1.01-45.63-26.67-.68-26.06,19.25-56.29,44.41-67.11,25.04-10.77,45.25,2,45.25,28.12Z"/>
  <path class="cls-1" d="M413.67,269.31l-4.54-2.68-121.93,76.83c-4.27,2.69-9.67,2.84-14.09.39l-121.7-67.6-5.15,3.42c-8.63,5.73-8.13,18.57.93,23.61l125.91,69.94c4.41,2.45,9.81,2.3,14.09-.39l126.82-79.92c8.76-5.52,8.57-18.35-.35-23.61Z"/>
  <rect class="cls-3" x="236.72" y="409.26" width="30.71" height="30.71" rx="6.63" ry="6.63"/>
</svg>